<svg width="24" height="24" viewBox="0 0 24 24" fill="none" xmlns="http://www.w3.org/2000/svg">
<g clip-path="url(#clip0_121_1674)">
<path fill-rule="evenodd" clip-rule="evenodd" d="M21.2675 4.80004L17.8323 1.36644L18.9651 0.233643L23.7651 5.03364C23.8396 5.10796 23.8987 5.19624 23.939 5.29343C23.9793 5.39062 24.0001 5.49482 24.0001 5.60004C24.0001 5.70527 23.9793 5.80946 23.939 5.90666C23.8987 6.00385 23.8396 6.09213 23.7651 6.16644L18.9651 10.9664L17.8323 9.83364L21.2675 6.40004H5.59868C4.53781 6.40004 3.52039 6.82147 2.77025 7.57162C2.0201 8.32176 1.59868 9.33918 1.59868 10.4V12.8H-0.00132396V10.4C-0.00132396 8.91483 0.588674 7.49045 1.63888 6.44025C2.68908 5.39004 4.11346 4.80004 5.59868 4.80004H21.2675ZM23.9987 11.2V13.6C23.9987 15.0853 23.4087 16.5096 22.3585 17.5598C21.3083 18.61 19.8839 19.2 18.3987 19.2H2.72988L6.16508 22.6336L5.03228 23.7664L0.232276 18.9664C0.0822992 18.8164 -0.00195312 18.613 -0.00195312 18.4008C-0.00195313 18.1887 0.0822992 17.9853 0.232276 17.8352L5.03228 13.0352L6.16508 14.1664L2.72988 17.6H18.3987C19.4595 17.6 20.477 17.1786 21.2271 16.4285C21.9772 15.6783 22.3987 14.6609 22.3987 13.6V11.2H23.9987Z" fill="#0E6CBB"/>
</g>
<defs>
<clipPath id="clip0_121_1674">
<rect width="24" height="24" fill="white" transform="translate(-0.000976562)"/>
</clipPath>
</defs>
</svg>
