<svg width="24" height="24" viewBox="0 0 24 24" fill="none" xmlns="http://www.w3.org/2000/svg">
<path d="M3.49993 8.00001C3.50013 7.05193 3.7454 6.11999 4.21195 5.29464C4.67849 4.4693 5.35047 3.77856 6.16267 3.28948C6.97486 2.80039 7.89969 2.52957 8.84741 2.50328C9.79514 2.47699 10.7336 2.69613 11.5716 3.13943C12.4097 3.58274 13.1189 4.23516 13.6305 5.03337C14.1421 5.83159 14.4386 6.74849 14.4914 7.69511C14.5442 8.64172 14.3513 9.5859 13.9316 10.436C13.5119 11.2861 12.8795 12.0133 12.0959 12.547C13.7834 13.1659 15.2471 14.2757 16.2986 15.7335C17.35 17.1913 17.9412 18.9304 17.9959 20.727C17.9936 20.9207 17.9165 21.106 17.7808 21.2442C17.645 21.3824 17.4611 21.4628 17.2675 21.4687C17.0739 21.4745 16.8855 21.4052 16.7417 21.2754C16.5979 21.1456 16.5099 20.9652 16.4959 20.772C16.4364 18.8235 15.6205 16.9747 14.2211 15.6174C12.8217 14.2602 10.9489 13.5011 8.99943 13.5011C7.04997 13.5011 5.17712 14.2602 3.77776 15.6174C2.37839 16.9747 1.56248 18.8235 1.50293 20.772C1.49292 20.9678 1.40661 21.152 1.26249 21.2849C1.11837 21.4179 0.927906 21.4891 0.731901 21.4834C0.535896 21.4776 0.34994 21.3954 0.213869 21.2542C0.0777983 21.113 0.00243635 20.9241 0.00392798 20.728C0.0584793 18.9312 0.649535 17.1919 1.70101 15.7339C2.75249 14.2759 4.21627 13.166 5.90393 12.547C5.16301 12.0424 4.55666 11.3643 4.13766 10.5718C3.71867 9.77935 3.49974 8.89645 3.49993 8.00001ZM8.99993 4.00001C7.93906 4.00001 6.92165 4.42144 6.1715 5.17159C5.42136 5.92173 4.99993 6.93915 4.99993 8.00001C4.99993 9.06088 5.42136 10.0783 6.1715 10.8284C6.92165 11.5786 7.93906 12 8.99993 12C10.0608 12 11.0782 11.5786 11.8284 10.8284C12.5785 10.0783 12.9999 9.06088 12.9999 8.00001C12.9999 6.93915 12.5785 5.92173 11.8284 5.17159C11.0782 4.42144 10.0608 4.00001 8.99993 4.00001ZM17.2899 8.00001C17.1426 8.00001 16.9979 8.01001 16.8559 8.03001C16.7568 8.04777 16.6551 8.04537 16.5569 8.02296C16.4587 8.00055 16.366 7.9586 16.2844 7.8996C16.2028 7.8406 16.1339 7.76576 16.0818 7.67955C16.0297 7.59334 15.9955 7.49753 15.9813 7.39782C15.967 7.29811 15.973 7.19656 15.9989 7.09922C16.0247 7.00187 16.0699 6.91074 16.1318 6.83124C16.1936 6.75174 16.2708 6.68552 16.3588 6.63651C16.4468 6.58751 16.5438 6.55673 16.6439 6.54601C17.6385 6.40222 18.6527 6.59321 19.5268 7.08894C20.4009 7.58466 21.0854 8.35698 21.4725 9.28434C21.8596 10.2117 21.9274 11.2415 21.6652 12.2116C21.4029 13.1816 20.8256 14.037 20.0239 14.643C21.2023 15.1707 22.2028 16.028 22.9048 17.1116C23.6068 18.1953 23.9802 19.4589 23.9799 20.75C23.9799 20.9489 23.9009 21.1397 23.7603 21.2803C23.6196 21.421 23.4288 21.5 23.2299 21.5C23.031 21.5 22.8403 21.421 22.6996 21.2803C22.5589 21.1397 22.4799 20.9489 22.4799 20.75C22.4803 19.634 22.1209 18.5477 21.4552 17.6521C20.7894 16.7564 19.8527 16.0993 18.7839 15.778L18.2499 15.618V13.942L18.6599 13.733C19.2677 13.4252 19.754 12.9215 20.0402 12.3033C20.3265 11.685 20.3961 10.9884 20.2378 10.3258C20.0794 9.66315 19.7024 9.07323 19.1675 8.65124C18.6327 8.22925 17.9712 7.99983 17.2899 8.00001Z" fill="#0E6CBB"/>
</svg>
